<?xml version="1.0" encoding="utf-8" standalone="no"?>
<!DOCTYPE svg PUBLIC "-//W3C//DTD SVG 1.1//EN"
  "http://www.w3.org/Graphics/SVG/1.1/DTD/svg11.dtd">
<svg xmlns:xlink="http://www.w3.org/1999/xlink" width="864pt" height="504pt" viewBox="0 0 864 504" xmlns="http://www.w3.org/2000/svg" version="1.1">
 <metadata>
  <rdf:RDF xmlns:dc="http://purl.org/dc/elements/1.1/" xmlns:cc="http://creativecommons.org/ns#" xmlns:rdf="http://www.w3.org/1999/02/22-rdf-syntax-ns#">
   <cc:Work>
    <dc:type rdf:resource="http://purl.org/dc/dcmitype/StillImage"/>
    <dc:date>2026-06-24T16:59:38.210251</dc:date>
    <dc:format>image/svg+xml</dc:format>
    <dc:creator>
     <cc:Agent>
      <dc:title>Permea public-safe aggregate figure export</dc:title>
     </cc:Agent>
    </dc:creator>
   </cc:Work>
  </rdf:RDF>
 </metadata>
 <defs>
  <style type="text/css">*{stroke-linejoin: round; stroke-linecap: butt}</style>
 </defs>
 <g id="figure_1">
  <g id="patch_1">
   <path d="M 0 504
L 864 504
L 864 0
L 0 0
z
" style="fill: #ffffff"/>
  </g>
  <g id="axes_1">
   <g id="patch_2">
    <path d="M 51.783244 174.9792
L 311.810569 174.9792
Q 330.930225 174.9792 330.930225 163.2402
L 330.930225 83.415
Q 330.930225 71.676 311.810569 71.676
L 51.783244 71.676
Q 32.663588 71.676 32.663588 83.415
L 32.663588 163.2402
Q 32.663588 174.9792 51.783244 174.9792
z
" clip-path="url(#p97d3639d48)" style="fill: #e8eef3; stroke: #2d3339; stroke-linejoin: miter"/>
   </g>
   <g id="patch_3">
    <path d="M 380.641331 231.3264
L 717.147281 231.3264
Q 736.266938 231.3264 736.266938 219.5874
L 736.266938 83.415
Q 736.266938 71.676 717.147281 71.676
L 380.641331 71.676
Q 361.521675 71.676 361.521675 83.415
L 361.521675 219.5874
Q 361.521675 231.3264 380.641331 231.3264
z
" clip-path="url(#p97d3639d48)" style="fill: #f6ecea; stroke: #2d3339; stroke-linejoin: miter"/>
   </g>
   <g id="patch_4">
    <path d="M 74.726831 372.1944
L 311.810569 372.1944
Q 330.930225 372.1944 330.930225 360.4554
L 330.930225 280.6302
Q 330.930225 268.8912 311.810569 268.8912
L 74.726831 268.8912
Q 55.607175 268.8912 55.607175 280.6302
L 55.607175 360.4554
Q 55.607175 372.1944 74.726831 372.1944
z
" clip-path="url(#p97d3639d48)" style="fill: #eaf3f1; stroke: #2d3339; stroke-linejoin: miter"/>
   </g>
   <g id="patch_5">
    <path d="M 411.232781 386.2812
L 694.203694 386.2812
Q 713.32335 386.2812 713.32335 374.5422
L 713.32335 294.717
Q 713.32335 282.978 694.203694 282.978
L 411.232781 282.978
Q 392.113125 282.978 392.113125 294.717
L 392.113125 374.5422
Q 392.113125 386.2812 411.232781 386.2812
z
" clip-path="url(#p97d3639d48)" style="fill: #f7f0df; stroke: #2d3339; stroke-linejoin: miter"/>
   </g>
   <g id="patch_6">
    <path d="M 51.783244 144.4578
L 120.614006 144.4578
Q 139.733663 144.4578 139.733663 132.7188
L 139.733663 113.9364
Q 139.733663 102.1974 120.614006 102.1974
L 51.783244 102.1974
Q 32.663588 102.1974 32.663588 113.9364
L 32.663588 132.7188
Q 32.663588 144.4578 51.783244 144.4578
z
" clip-path="url(#p97d3639d48)" style="fill: #ffffff; stroke: #2d3339; stroke-linejoin: miter"/>
   </g>
   <g id="patch_7">
    <path d="M 166.501181 144.4578
L 235.331944 144.4578
Q 254.4516 144.4578 254.4516 132.7188
L 254.4516 113.9364
Q 254.4516 102.1974 235.331944 102.1974
L 166.501181 102.1974
Q 147.381525 102.1974 147.381525 113.9364
L 147.381525 132.7188
Q 147.381525 144.4578 166.501181 144.4578
z
" clip-path="url(#p97d3639d48)" style="fill: #ffffff; stroke: #2d3339; stroke-linejoin: miter"/>
   </g>
   <g id="patch_8">
    <path d="M 166.501181 182.0226
L 235.331944 182.0226
Q 254.4516 182.0226 254.4516 170.2836
L 254.4516 151.5012
Q 254.4516 139.7622 235.331944 139.7622
L 166.501181 139.7622
Q 147.381525 139.7622 147.381525 151.5012
L 147.381525 170.2836
Q 147.381525 182.0226 166.501181 182.0226
z
" clip-path="url(#p97d3639d48)" style="fill: #ffffff; stroke: #2d3339; stroke-linejoin: miter"/>
   </g>
   <g id="patch_9">
    <path d="M 380.641331 153.849
L 449.472094 153.849
Q 468.59175 153.849 468.59175 142.11
L 468.59175 123.3276
Q 468.59175 111.5886 449.472094 111.5886
L 380.641331 111.5886
Q 361.521675 111.5886 361.521675 123.3276
L 361.521675 142.11
Q 361.521675 153.849 380.641331 153.849
z
" clip-path="url(#p97d3639d48)" style="fill: #ffffff; stroke: #2d3339; stroke-linejoin: miter"/>
   </g>
   <g id="patch_10">
    <path d="M 495.359269 153.849
L 564.190031 153.849
Q 583.309687 153.849 583.309687 142.11
L 583.309687 123.3276
Q 583.309687 111.5886 564.190031 111.5886
L 495.359269 111.5886
Q 476.239613 111.5886 476.239613 123.3276
L 476.239613 142.11
Q 476.239613 153.849 495.359269 153.849
z
" clip-path="url(#p97d3639d48)" style="fill: #ffffff; stroke: #2d3339; stroke-linejoin: miter"/>
   </g>
   <g id="patch_11">
    <path d="M 610.077206 153.849
L 678.907969 153.849
Q 698.027625 153.849 698.027625 142.11
L 698.027625 123.3276
Q 698.027625 111.5886 678.907969 111.5886
L 610.077206 111.5886
Q 590.95755 111.5886 590.95755 123.3276
L 590.95755 142.11
Q 590.95755 153.849 610.077206 153.849
z
" clip-path="url(#p97d3639d48)" style="fill: #ffffff; stroke: #2d3339; stroke-linejoin: miter"/>
   </g>
   <g id="patch_12">
    <path d="M 495.359269 219.5874
L 564.190031 219.5874
Q 583.309687 219.5874 583.309687 207.8484
L 583.309687 189.066
Q 583.309687 177.327 564.190031 177.327
L 495.359269 177.327
Q 476.239613 177.327 476.239613 189.066
L 476.239613 207.8484
Q 476.239613 219.5874 495.359269 219.5874
z
" clip-path="url(#p97d3639d48)" style="fill: #ffffff; stroke: #2d3339; stroke-linejoin: miter"/>
   </g>
   <g id="patch_13">
    <path d="M 90.022556 355.7598
L 158.853319 355.7598
Q 177.972975 355.7598 177.972975 344.0208
L 177.972975 325.2384
Q 177.972975 313.4994 158.853319 313.4994
L 90.022556 313.4994
Q 70.9029 313.4994 70.9029 325.2384
L 70.9029 344.0208
Q 70.9029 355.7598 90.022556 355.7598
z
" clip-path="url(#p97d3639d48)" style="fill: #ffffff; stroke: #2d3339; stroke-linejoin: miter"/>
   </g>
   <g id="patch_14">
    <path d="M 204.740494 355.7598
L 273.571256 355.7598
Q 292.690913 355.7598 292.690913 344.0208
L 292.690913 325.2384
Q 292.690913 313.4994 273.571256 313.4994
L 204.740494 313.4994
Q 185.620837 313.4994 185.620837 325.2384
L 185.620837 344.0208
Q 185.620837 355.7598 204.740494 355.7598
z
" clip-path="url(#p97d3639d48)" style="fill: #ffffff; stroke: #2d3339; stroke-linejoin: miter"/>
   </g>
   <g id="patch_15">
    <path d="M 434.176369 365.151
L 503.007131 365.151
Q 522.126787 365.151 522.126787 353.412
L 522.126787 334.6296
Q 522.126787 322.8906 503.007131 322.8906
L 434.176369 322.8906
Q 415.056712 322.8906 415.056712 334.6296
L 415.056712 353.412
Q 415.056712 365.151 434.176369 365.151
z
" clip-path="url(#p97d3639d48)" style="fill: #ffffff; stroke: #2d3339; stroke-linejoin: miter"/>
   </g>
   <g id="patch_16">
    <path d="M 571.837894 365.151
L 640.668656 365.151
Q 659.788312 365.151 659.788312 353.412
L 659.788312 334.6296
Q 659.788312 322.8906 640.668656 322.8906
L 571.837894 322.8906
Q 552.718237 322.8906 552.718237 334.6296
L 552.718237 353.412
Q 552.718237 365.151 571.837894 365.151
z
" clip-path="url(#p97d3639d48)" style="fill: #ffffff; stroke: #2d3339; stroke-linejoin: miter"/>
   </g>
   <g id="patch_17">
    <path d="M 126.44046 123.3276
Q 143.556947 123.3276 159.555399 123.3276
" clip-path="url(#p97d3639d48)" style="fill: none; stroke: #2d3339; stroke-linecap: round"/>
    <path d="M 154.755399 120.9276
L 159.555399 123.3276
L 154.755399 125.7276
z
" clip-path="url(#p97d3639d48)" style="fill: #2d3339; stroke: #2d3339; stroke-linecap: round"/>
   </g>
   <g id="patch_18">
    <path d="M 237.361073 124.209171
Q 200.916015 142.110269 165.474472 159.51846
" clip-path="url(#p97d3639d48)" style="fill: none; stroke: #2d3339; stroke-linecap: round"/>
    <path d="M 170.8409 159.556458
L 165.474472 159.51846
L 168.724727 155.248116
z
" clip-path="url(#p97d3639d48)" style="fill: #2d3339; stroke: #2d3339; stroke-linecap: round"/>
   </g>
   <g id="text_1">
    <!-- Current first evidence lineage -->
    <g transform="translate(97.3805 126.047912) scale(0.1 -0.1)">
     <defs>
      <path id="DejaVuSans-Bold-43" d="M 4288 256
Q 3956 84 3597 -3
Q 3238 -91 2847 -91
Q 1681 -91 1000 561
Q 319 1213 319 2328
Q 319 3447 1000 4098
Q 1681 4750 2847 4750
Q 3238 4750 3597 4662
Q 3956 4575 4288 4403
L 4288 3438
Q 3953 3666 3628 3772
Q 3303 3878 2944 3878
Q 2300 3878 1931 3465
Q 1563 3053 1563 2328
Q 1563 1606 1931 1193
Q 2300 781 2944 781
Q 3303 781 3628 887
Q 3953 994 4288 1222
L 4288 256
z
" transform="scale(0.015625)"/>
      <path id="DejaVuSans-Bold-75" d="M 500 1363
L 500 3500
L 1625 3500
L 1625 3150
Q 1625 2866 1622 2436
Q 1619 2006 1619 1863
Q 1619 1441 1641 1255
Q 1663 1069 1716 984
Q 1784 875 1895 815
Q 2006 756 2150 756
Q 2500 756 2700 1025
Q 2900 1294 2900 1772
L 2900 3500
L 4019 3500
L 4019 0
L 2900 0
L 2900 506
Q 2647 200 2364 54
Q 2081 -91 1741 -91
Q 1134 -91 817 281
Q 500 653 500 1363
z
" transform="scale(0.015625)"/>
      <path id="DejaVuSans-Bold-72" d="M 3138 2547
Q 2991 2616 2845 2648
Q 2700 2681 2553 2681
Q 2122 2681 1889 2404
Q 1656 2128 1656 1613
L 1656 0
L 538 0
L 538 3500
L 1656 3500
L 1656 2925
Q 1872 3269 2151 3426
Q 2431 3584 2822 3584
Q 2878 3584 2943 3579
Q 3009 3575 3134 3559
L 3138 2547
z
" transform="scale(0.015625)"/>
      <path id="DejaVuSans-Bold-65" d="M 4031 1759
L 4031 1441
L 1416 1441
Q 1456 1047 1700 850
Q 1944 653 2381 653
Q 2734 653 3104 758
Q 3475 863 3866 1075
L 3866 213
Q 3469 63 3072 -14
Q 2675 -91 2278 -91
Q 1328 -91 801 392
Q 275 875 275 1747
Q 275 2603 792 3093
Q 1309 3584 2216 3584
Q 3041 3584 3536 3087
Q 4031 2591 4031 1759
z
M 2881 2131
Q 2881 2450 2695 2645
Q 2509 2841 2209 2841
Q 1884 2841 1681 2658
Q 1478 2475 1428 2131
L 2881 2131
z
" transform="scale(0.015625)"/>
      <path id="DejaVuSans-Bold-6e" d="M 4056 2131
L 4056 0
L 2931 0
L 2931 347
L 2931 1631
Q 2931 2084 2911 2256
Q 2891 2428 2841 2509
Q 2775 2619 2662 2680
Q 2550 2741 2406 2741
Q 2056 2741 1856 2470
Q 1656 2200 1656 1722
L 1656 0
L 538 0
L 538 3500
L 1656 3500
L 1656 2988
Q 1909 3294 2193 3439
Q 2478 3584 2822 3584
Q 3428 3584 3742 3212
Q 4056 2841 4056 2131
z
" transform="scale(0.015625)"/>
      <path id="DejaVuSans-Bold-74" d="M 1759 4494
L 1759 3500
L 2913 3500
L 2913 2700
L 1759 2700
L 1759 1216
Q 1759 972 1856 886
Q 1953 800 2241 800
L 2816 800
L 2816 0
L 1856 0
Q 1194 0 917 276
Q 641 553 641 1216
L 641 2700
L 84 2700
L 84 3500
L 641 3500
L 641 4494
L 1759 4494
z
" transform="scale(0.015625)"/>
      <path id="DejaVuSans-Bold-20" transform="scale(0.015625)"/>
      <path id="DejaVuSans-Bold-66" d="M 2841 4863
L 2841 4128
L 2222 4128
Q 1984 4128 1890 4042
Q 1797 3956 1797 3744
L 1797 3500
L 2753 3500
L 2753 2700
L 1797 2700
L 1797 0
L 678 0
L 678 2700
L 122 2700
L 122 3500
L 678 3500
L 678 3744
Q 678 4316 997 4589
Q 1316 4863 1984 4863
L 2841 4863
z
" transform="scale(0.015625)"/>
      <path id="DejaVuSans-Bold-69" d="M 538 3500
L 1656 3500
L 1656 0
L 538 0
L 538 3500
z
M 538 4863
L 1656 4863
L 1656 3950
L 538 3950
L 538 4863
z
" transform="scale(0.015625)"/>
      <path id="DejaVuSans-Bold-73" d="M 3272 3391
L 3272 2541
Q 2913 2691 2578 2766
Q 2244 2841 1947 2841
Q 1628 2841 1473 2761
Q 1319 2681 1319 2516
Q 1319 2381 1436 2309
Q 1553 2238 1856 2203
L 2053 2175
Q 2913 2066 3209 1816
Q 3506 1566 3506 1031
Q 3506 472 3093 190
Q 2681 -91 1863 -91
Q 1516 -91 1145 -36
Q 775 19 384 128
L 384 978
Q 719 816 1070 734
Q 1422 653 1784 653
Q 2113 653 2278 743
Q 2444 834 2444 1013
Q 2444 1163 2330 1236
Q 2216 1309 1875 1350
L 1678 1375
Q 931 1469 631 1722
Q 331 1975 331 2491
Q 331 3047 712 3315
Q 1094 3584 1881 3584
Q 2191 3584 2531 3537
Q 2872 3491 3272 3391
z
" transform="scale(0.015625)"/>
      <path id="DejaVuSans-Bold-76" d="M 97 3500
L 1216 3500
L 2088 1081
L 2956 3500
L 4078 3500
L 2700 0
L 1472 0
L 97 3500
z
" transform="scale(0.015625)"/>
      <path id="DejaVuSans-Bold-64" d="M 2919 2988
L 2919 4863
L 4044 4863
L 4044 0
L 2919 0
L 2919 506
Q 2688 197 2409 53
Q 2131 -91 1766 -91
Q 1119 -91 703 423
Q 288 938 288 1747
Q 288 2556 703 3070
Q 1119 3584 1766 3584
Q 2128 3584 2408 3439
Q 2688 3294 2919 2988
z
M 2181 722
Q 2541 722 2730 984
Q 2919 1247 2919 1747
Q 2919 2247 2730 2509
Q 2541 2772 2181 2772
Q 1825 2772 1636 2509
Q 1447 2247 1447 1747
Q 1447 1247 1636 984
Q 1825 722 2181 722
z
" transform="scale(0.015625)"/>
      <path id="DejaVuSans-Bold-63" d="M 3366 3391
L 3366 2478
Q 3138 2634 2908 2709
Q 2678 2784 2431 2784
Q 1963 2784 1702 2511
Q 1441 2238 1441 1747
Q 1441 1256 1702 982
Q 1963 709 2431 709
Q 2694 709 2930 787
Q 3166 866 3366 1019
L 3366 103
Q 3103 6 2833 -42
Q 2563 -91 2291 -91
Q 1344 -91 809 395
Q 275 881 275 1747
Q 275 2613 809 3098
Q 1344 3584 2291 3584
Q 2566 3584 2833 3536
Q 3100 3488 3366 3391
z
" transform="scale(0.015625)"/>
      <path id="DejaVuSans-Bold-6c" d="M 538 4863
L 1656 4863
L 1656 0
L 538 0
L 538 4863
z
" transform="scale(0.015625)"/>
      <path id="DejaVuSans-Bold-61" d="M 2106 1575
Q 1756 1575 1579 1456
Q 1403 1338 1403 1106
Q 1403 894 1545 773
Q 1688 653 1941 653
Q 2256 653 2472 879
Q 2688 1106 2688 1447
L 2688 1575
L 2106 1575
z
M 3816 1997
L 3816 0
L 2688 0
L 2688 519
Q 2463 200 2181 54
Q 1900 -91 1497 -91
Q 953 -91 614 226
Q 275 544 275 1050
Q 275 1666 698 1953
Q 1122 2241 2028 2241
L 2688 2241
L 2688 2328
Q 2688 2594 2478 2717
Q 2269 2841 1825 2841
Q 1466 2841 1156 2769
Q 847 2697 581 2553
L 581 3406
Q 941 3494 1303 3539
Q 1666 3584 2028 3584
Q 2975 3584 3395 3211
Q 3816 2838 3816 1997
z
" transform="scale(0.015625)"/>
      <path id="DejaVuSans-Bold-67" d="M 2919 594
Q 2688 288 2409 144
Q 2131 0 1766 0
Q 1125 0 706 504
Q 288 1009 288 1791
Q 288 2575 706 3076
Q 1125 3578 1766 3578
Q 2131 3578 2409 3434
Q 2688 3291 2919 2981
L 2919 3500
L 4044 3500
L 4044 353
Q 4044 -491 3511 -936
Q 2978 -1381 1966 -1381
Q 1638 -1381 1331 -1331
Q 1025 -1281 716 -1178
L 716 -306
Q 1009 -475 1290 -558
Q 1572 -641 1856 -641
Q 2406 -641 2662 -400
Q 2919 -159 2919 353
L 2919 594
z
M 2181 2772
Q 1834 2772 1640 2515
Q 1447 2259 1447 1791
Q 1447 1309 1634 1061
Q 1822 813 2181 813
Q 2531 813 2725 1069
Q 2919 1325 2919 1791
Q 2919 2259 2725 2515
Q 2531 2772 2181 2772
z
" transform="scale(0.015625)"/>
     </defs>
     <use xlink:href="#DejaVuSans-Bold-43"/>
     <use xlink:href="#DejaVuSans-Bold-75" transform="translate(73.388672 0)"/>
     <use xlink:href="#DejaVuSans-Bold-72" transform="translate(144.580078 0)"/>
     <use xlink:href="#DejaVuSans-Bold-72" transform="translate(193.896484 0)"/>
     <use xlink:href="#DejaVuSans-Bold-65" transform="translate(243.212891 0)"/>
     <use xlink:href="#DejaVuSans-Bold-6e" transform="translate(311.035156 0)"/>
     <use xlink:href="#DejaVuSans-Bold-74" transform="translate(382.226562 0)"/>
     <use xlink:href="#DejaVuSans-Bold-20" transform="translate(430.029297 0)"/>
     <use xlink:href="#DejaVuSans-Bold-66" transform="translate(464.84375 0)"/>
     <use xlink:href="#DejaVuSans-Bold-69" transform="translate(508.349609 0)"/>
     <use xlink:href="#DejaVuSans-Bold-72" transform="translate(542.626953 0)"/>
     <use xlink:href="#DejaVuSans-Bold-73" transform="translate(591.943359 0)"/>
     <use xlink:href="#DejaVuSans-Bold-74" transform="translate(651.464844 0)"/>
     <use xlink:href="#DejaVuSans-Bold-20" transform="translate(699.267578 0)"/>
     <use xlink:href="#DejaVuSans-Bold-65" transform="translate(734.082031 0)"/>
     <use xlink:href="#DejaVuSans-Bold-76" transform="translate(801.904297 0)"/>
     <use xlink:href="#DejaVuSans-Bold-69" transform="translate(867.089844 0)"/>
     <use xlink:href="#DejaVuSans-Bold-64" transform="translate(901.367188 0)"/>
     <use xlink:href="#DejaVuSans-Bold-65" transform="translate(972.949219 0)"/>
     <use xlink:href="#DejaVuSans-Bold-6e" transform="translate(1040.771484 0)"/>
     <use xlink:href="#DejaVuSans-Bold-63" transform="translate(1111.962891 0)"/>
     <use xlink:href="#DejaVuSans-Bold-65" transform="translate(1171.240234 0)"/>
     <use xlink:href="#DejaVuSans-Bold-20" transform="translate(1239.0625 0)"/>
     <use xlink:href="#DejaVuSans-Bold-6c" transform="translate(1273.876953 0)"/>
     <use xlink:href="#DejaVuSans-Bold-69" transform="translate(1308.154297 0)"/>
     <use xlink:href="#DejaVuSans-Bold-6e" transform="translate(1342.431641 0)"/>
     <use xlink:href="#DejaVuSans-Bold-65" transform="translate(1413.623047 0)"/>
     <use xlink:href="#DejaVuSans-Bold-61" transform="translate(1481.445312 0)"/>
     <use xlink:href="#DejaVuSans-Bold-67" transform="translate(1548.925781 0)"/>
     <use xlink:href="#DejaVuSans-Bold-65" transform="translate(1620.507812 0)"/>
    </g>
   </g>
   <g id="text_2">
    <!-- Circularity-sensitive direct BBB source family -->
    <g transform="translate(421.020869 154.221512) scale(0.1 -0.1)">
     <defs>
      <path id="DejaVuSans-Bold-79" d="M 78 3500
L 1197 3500
L 2138 1125
L 2938 3500
L 4056 3500
L 2584 -331
Q 2363 -916 2067 -1148
Q 1772 -1381 1288 -1381
L 641 -1381
L 641 -647
L 991 -647
Q 1275 -647 1404 -556
Q 1534 -466 1606 -231
L 1638 -134
L 78 3500
z
" transform="scale(0.015625)"/>
      <path id="DejaVuSans-Bold-2d" d="M 347 2297
L 2309 2297
L 2309 1388
L 347 1388
L 347 2297
z
" transform="scale(0.015625)"/>
      <path id="DejaVuSans-Bold-42" d="M 2456 2859
Q 2741 2859 2887 2984
Q 3034 3109 3034 3353
Q 3034 3594 2887 3720
Q 2741 3847 2456 3847
L 1791 3847
L 1791 2859
L 2456 2859
z
M 2497 819
Q 2859 819 3042 972
Q 3225 1125 3225 1434
Q 3225 1738 3044 1889
Q 2863 2041 2497 2041
L 1791 2041
L 1791 819
L 2497 819
z
M 3616 2497
Q 4003 2384 4215 2081
Q 4428 1778 4428 1338
Q 4428 663 3972 331
Q 3516 0 2584 0
L 588 0
L 588 4666
L 2394 4666
Q 3366 4666 3802 4372
Q 4238 4078 4238 3431
Q 4238 3091 4078 2852
Q 3919 2613 3616 2497
z
" transform="scale(0.015625)"/>
      <path id="DejaVuSans-Bold-6f" d="M 2203 2784
Q 1831 2784 1636 2517
Q 1441 2250 1441 1747
Q 1441 1244 1636 976
Q 1831 709 2203 709
Q 2569 709 2762 976
Q 2956 1244 2956 1747
Q 2956 2250 2762 2517
Q 2569 2784 2203 2784
z
M 2203 3584
Q 3106 3584 3614 3096
Q 4122 2609 4122 1747
Q 4122 884 3614 396
Q 3106 -91 2203 -91
Q 1297 -91 786 396
Q 275 884 275 1747
Q 275 2609 786 3096
Q 1297 3584 2203 3584
z
" transform="scale(0.015625)"/>
      <path id="DejaVuSans-Bold-6d" d="M 3781 2919
Q 3994 3244 4286 3414
Q 4578 3584 4928 3584
Q 5531 3584 5847 3212
Q 6163 2841 6163 2131
L 6163 0
L 5038 0
L 5038 1825
Q 5041 1866 5042 1909
Q 5044 1953 5044 2034
Q 5044 2406 4934 2573
Q 4825 2741 4581 2741
Q 4263 2741 4089 2478
Q 3916 2216 3909 1719
L 3909 0
L 2784 0
L 2784 1825
Q 2784 2406 2684 2573
Q 2584 2741 2328 2741
Q 2006 2741 1831 2477
Q 1656 2213 1656 1722
L 1656 0
L 531 0
L 531 3500
L 1656 3500
L 1656 2988
Q 1863 3284 2130 3434
Q 2397 3584 2719 3584
Q 3081 3584 3359 3409
Q 3638 3234 3781 2919
z
" transform="scale(0.015625)"/>
     </defs>
     <use xlink:href="#DejaVuSans-Bold-43"/>
     <use xlink:href="#DejaVuSans-Bold-69" transform="translate(73.388672 0)"/>
     <use xlink:href="#DejaVuSans-Bold-72" transform="translate(107.666016 0)"/>
     <use xlink:href="#DejaVuSans-Bold-63" transform="translate(156.982422 0)"/>
     <use xlink:href="#DejaVuSans-Bold-75" transform="translate(216.259766 0)"/>
     <use xlink:href="#DejaVuSans-Bold-6c" transform="translate(287.451172 0)"/>
     <use xlink:href="#DejaVuSans-Bold-61" transform="translate(321.728516 0)"/>
     <use xlink:href="#DejaVuSans-Bold-72" transform="translate(389.208984 0)"/>
     <use xlink:href="#DejaVuSans-Bold-69" transform="translate(438.525391 0)"/>
     <use xlink:href="#DejaVuSans-Bold-74" transform="translate(472.802734 0)"/>
     <use xlink:href="#DejaVuSans-Bold-79" transform="translate(520.605469 0)"/>
     <use xlink:href="#DejaVuSans-Bold-2d" transform="translate(585.791016 0)"/>
     <use xlink:href="#DejaVuSans-Bold-73" transform="translate(627.294922 0)"/>
     <use xlink:href="#DejaVuSans-Bold-65" transform="translate(686.816406 0)"/>
     <use xlink:href="#DejaVuSans-Bold-6e" transform="translate(754.638672 0)"/>
     <use xlink:href="#DejaVuSans-Bold-73" transform="translate(825.830078 0)"/>
     <use xlink:href="#DejaVuSans-Bold-69" transform="translate(885.351562 0)"/>
     <use xlink:href="#DejaVuSans-Bold-74" transform="translate(919.628906 0)"/>
     <use xlink:href="#DejaVuSans-Bold-69" transform="translate(967.431641 0)"/>
     <use xlink:href="#DejaVuSans-Bold-76" transform="translate(1001.708984 0)"/>
     <use xlink:href="#DejaVuSans-Bold-65" transform="translate(1066.894531 0)"/>
     <use xlink:href="#DejaVuSans-Bold-20" transform="translate(1134.716797 0)"/>
     <use xlink:href="#DejaVuSans-Bold-64" transform="translate(1169.53125 0)"/>
     <use xlink:href="#DejaVuSans-Bold-69" transform="translate(1241.113281 0)"/>
     <use xlink:href="#DejaVuSans-Bold-72" transform="translate(1275.390625 0)"/>
     <use xlink:href="#DejaVuSans-Bold-65" transform="translate(1324.707031 0)"/>
     <use xlink:href="#DejaVuSans-Bold-63" transform="translate(1392.529297 0)"/>
     <use xlink:href="#DejaVuSans-Bold-74" transform="translate(1451.806641 0)"/>
     <use xlink:href="#DejaVuSans-Bold-20" transform="translate(1499.609375 0)"/>
     <use xlink:href="#DejaVuSans-Bold-42" transform="translate(1534.423828 0)"/>
     <use xlink:href="#DejaVuSans-Bold-42" transform="translate(1610.644531 0)"/>
     <use xlink:href="#DejaVuSans-Bold-42" transform="translate(1686.865234 0)"/>
     <use xlink:href="#DejaVuSans-Bold-20" transform="translate(1763.085938 0)"/>
     <use xlink:href="#DejaVuSans-Bold-73" transform="translate(1797.900391 0)"/>
     <use xlink:href="#DejaVuSans-Bold-6f" transform="translate(1857.421875 0)"/>
     <use xlink:href="#DejaVuSans-Bold-75" transform="translate(1926.123047 0)"/>
     <use xlink:href="#DejaVuSans-Bold-72" transform="translate(1997.314453 0)"/>
     <use xlink:href="#DejaVuSans-Bold-63" transform="translate(2046.630859 0)"/>
     <use xlink:href="#DejaVuSans-Bold-65" transform="translate(2105.908203 0)"/>
     <use xlink:href="#DejaVuSans-Bold-20" transform="translate(2173.730469 0)"/>
     <use xlink:href="#DejaVuSans-Bold-66" transform="translate(2208.544922 0)"/>
     <use xlink:href="#DejaVuSans-Bold-61" transform="translate(2252.050781 0)"/>
     <use xlink:href="#DejaVuSans-Bold-6d" transform="translate(2319.53125 0)"/>
     <use xlink:href="#DejaVuSans-Bold-69" transform="translate(2423.730469 0)"/>
     <use xlink:href="#DejaVuSans-Bold-6c" transform="translate(2458.007812 0)"/>
     <use xlink:href="#DejaVuSans-Bold-79" transform="translate(2492.285156 0)"/>
    </g>
   </g>
   <g id="text_3">
    <!-- Adjacent CPP family -->
    <g transform="translate(136.49995 323.263113) scale(0.1 -0.1)">
     <defs>
      <path id="DejaVuSans-Bold-41" d="M 3419 850
L 1538 850
L 1241 0
L 31 0
L 1759 4666
L 3194 4666
L 4922 0
L 3713 0
L 3419 850
z
M 1838 1716
L 3116 1716
L 2478 3572
L 1838 1716
z
" transform="scale(0.015625)"/>
      <path id="DejaVuSans-Bold-6a" d="M 538 3500
L 1656 3500
L 1656 63
Q 1656 -641 1318 -1011
Q 981 -1381 341 -1381
L -213 -1381
L -213 -647
L -19 -647
Q 300 -647 419 -503
Q 538 -359 538 63
L 538 3500
z
M 538 4863
L 1656 4863
L 1656 3950
L 538 3950
L 538 4863
z
" transform="scale(0.015625)"/>
      <path id="DejaVuSans-Bold-50" d="M 588 4666
L 2584 4666
Q 3475 4666 3951 4270
Q 4428 3875 4428 3144
Q 4428 2409 3951 2014
Q 3475 1619 2584 1619
L 1791 1619
L 1791 0
L 588 0
L 588 4666
z
M 1791 3794
L 1791 2491
L 2456 2491
Q 2806 2491 2997 2661
Q 3188 2831 3188 3144
Q 3188 3456 2997 3625
Q 2806 3794 2456 3794
L 1791 3794
z
" transform="scale(0.015625)"/>
     </defs>
     <use xlink:href="#DejaVuSans-Bold-41"/>
     <use xlink:href="#DejaVuSans-Bold-64" transform="translate(77.392578 0)"/>
     <use xlink:href="#DejaVuSans-Bold-6a" transform="translate(148.974609 0)"/>
     <use xlink:href="#DejaVuSans-Bold-61" transform="translate(183.251953 0)"/>
     <use xlink:href="#DejaVuSans-Bold-63" transform="translate(250.732422 0)"/>
     <use xlink:href="#DejaVuSans-Bold-65" transform="translate(310.009766 0)"/>
     <use xlink:href="#DejaVuSans-Bold-6e" transform="translate(377.832031 0)"/>
     <use xlink:href="#DejaVuSans-Bold-74" transform="translate(449.023438 0)"/>
     <use xlink:href="#DejaVuSans-Bold-20" transform="translate(496.826172 0)"/>
     <use xlink:href="#DejaVuSans-Bold-43" transform="translate(531.640625 0)"/>
     <use xlink:href="#DejaVuSans-Bold-50" transform="translate(605.029297 0)"/>
     <use xlink:href="#DejaVuSans-Bold-50" transform="translate(678.320312 0)"/>
     <use xlink:href="#DejaVuSans-Bold-20" transform="translate(751.611328 0)"/>
     <use xlink:href="#DejaVuSans-Bold-66" transform="translate(786.425781 0)"/>
     <use xlink:href="#DejaVuSans-Bold-61" transform="translate(829.931641 0)"/>
     <use xlink:href="#DejaVuSans-Bold-6d" transform="translate(897.412109 0)"/>
     <use xlink:href="#DejaVuSans-Bold-69" transform="translate(1001.611328 0)"/>
     <use xlink:href="#DejaVuSans-Bold-6c" transform="translate(1035.888672 0)"/>
     <use xlink:href="#DejaVuSans-Bold-79" transform="translate(1070.166016 0)"/>
    </g>
   </g>
   <g id="text_4">
    <!-- Adjacent membrane-active / control family -->
    <g transform="translate(432.328394 337.349913) scale(0.1 -0.1)">
     <defs>
      <path id="DejaVuSans-Bold-62" d="M 2400 722
Q 2759 722 2948 984
Q 3138 1247 3138 1747
Q 3138 2247 2948 2509
Q 2759 2772 2400 2772
Q 2041 2772 1848 2508
Q 1656 2244 1656 1747
Q 1656 1250 1848 986
Q 2041 722 2400 722
z
M 1656 2988
Q 1888 3294 2169 3439
Q 2450 3584 2816 3584
Q 3463 3584 3878 3070
Q 4294 2556 4294 1747
Q 4294 938 3878 423
Q 3463 -91 2816 -91
Q 2450 -91 2169 54
Q 1888 200 1656 506
L 1656 0
L 538 0
L 538 4863
L 1656 4863
L 1656 2988
z
" transform="scale(0.015625)"/>
      <path id="DejaVuSans-Bold-2f" d="M 1644 4666
L 2338 4666
L 691 -594
L 0 -594
L 1644 4666
z
" transform="scale(0.015625)"/>
     </defs>
     <use xlink:href="#DejaVuSans-Bold-41"/>
     <use xlink:href="#DejaVuSans-Bold-64" transform="translate(77.392578 0)"/>
     <use xlink:href="#DejaVuSans-Bold-6a" transform="translate(148.974609 0)"/>
     <use xlink:href="#DejaVuSans-Bold-61" transform="translate(183.251953 0)"/>
     <use xlink:href="#DejaVuSans-Bold-63" transform="translate(250.732422 0)"/>
     <use xlink:href="#DejaVuSans-Bold-65" transform="translate(310.009766 0)"/>
     <use xlink:href="#DejaVuSans-Bold-6e" transform="translate(377.832031 0)"/>
     <use xlink:href="#DejaVuSans-Bold-74" transform="translate(449.023438 0)"/>
     <use xlink:href="#DejaVuSans-Bold-20" transform="translate(496.826172 0)"/>
     <use xlink:href="#DejaVuSans-Bold-6d" transform="translate(531.640625 0)"/>
     <use xlink:href="#DejaVuSans-Bold-65" transform="translate(635.839844 0)"/>
     <use xlink:href="#DejaVuSans-Bold-6d" transform="translate(703.662109 0)"/>
     <use xlink:href="#DejaVuSans-Bold-62" transform="translate(807.861328 0)"/>
     <use xlink:href="#DejaVuSans-Bold-72" transform="translate(879.443359 0)"/>
     <use xlink:href="#DejaVuSans-Bold-61" transform="translate(928.759766 0)"/>
     <use xlink:href="#DejaVuSans-Bold-6e" transform="translate(996.240234 0)"/>
     <use xlink:href="#DejaVuSans-Bold-65" transform="translate(1067.431641 0)"/>
     <use xlink:href="#DejaVuSans-Bold-2d" transform="translate(1135.253906 0)"/>
     <use xlink:href="#DejaVuSans-Bold-61" transform="translate(1176.757812 0)"/>
     <use xlink:href="#DejaVuSans-Bold-63" transform="translate(1244.238281 0)"/>
     <use xlink:href="#DejaVuSans-Bold-74" transform="translate(1303.515625 0)"/>
     <use xlink:href="#DejaVuSans-Bold-69" transform="translate(1351.318359 0)"/>
     <use xlink:href="#DejaVuSans-Bold-76" transform="translate(1385.595703 0)"/>
     <use xlink:href="#DejaVuSans-Bold-65" transform="translate(1450.78125 0)"/>
     <use xlink:href="#DejaVuSans-Bold-20" transform="translate(1518.603516 0)"/>
     <use xlink:href="#DejaVuSans-Bold-2f" transform="translate(1553.417969 0)"/>
     <use xlink:href="#DejaVuSans-Bold-20" transform="translate(1589.941406 0)"/>
     <use xlink:href="#DejaVuSans-Bold-63" transform="translate(1624.755859 0)"/>
     <use xlink:href="#DejaVuSans-Bold-6f" transform="translate(1684.033203 0)"/>
     <use xlink:href="#DejaVuSans-Bold-6e" transform="translate(1752.734375 0)"/>
     <use xlink:href="#DejaVuSans-Bold-74" transform="translate(1823.925781 0)"/>
     <use xlink:href="#DejaVuSans-Bold-72" transform="translate(1871.728516 0)"/>
     <use xlink:href="#DejaVuSans-Bold-6f" transform="translate(1921.044922 0)"/>
     <use xlink:href="#DejaVuSans-Bold-6c" transform="translate(1989.746094 0)"/>
     <use xlink:href="#DejaVuSans-Bold-20" transform="translate(2024.023438 0)"/>
     <use xlink:href="#DejaVuSans-Bold-66" transform="translate(2058.837891 0)"/>
     <use xlink:href="#DejaVuSans-Bold-61" transform="translate(2102.34375 0)"/>
     <use xlink:href="#DejaVuSans-Bold-6d" transform="translate(2169.824219 0)"/>
     <use xlink:href="#DejaVuSans-Bold-69" transform="translate(2274.023438 0)"/>
     <use xlink:href="#DejaVuSans-Bold-6c" transform="translate(2308.300781 0)"/>
     <use xlink:href="#DejaVuSans-Bold-79" transform="translate(2342.578125 0)"/>
    </g>
   </g>
   <g id="text_5">
    <!-- B3Pdb -->
    <g transform="translate(74.217375 125.397131) scale(0.075 -0.075)">
     <defs>
      <path id="DejaVuSans-42" d="M 1259 2228
L 1259 519
L 2272 519
Q 2781 519 3026 730
Q 3272 941 3272 1375
Q 3272 1813 3026 2020
Q 2781 2228 2272 2228
L 1259 2228
z
M 1259 4147
L 1259 2741
L 2194 2741
Q 2656 2741 2882 2914
Q 3109 3088 3109 3444
Q 3109 3797 2882 3972
Q 2656 4147 2194 4147
L 1259 4147
z
M 628 4666
L 2241 4666
Q 2963 4666 3353 4366
Q 3744 4066 3744 3513
Q 3744 3084 3544 2831
Q 3344 2578 2956 2516
Q 3422 2416 3680 2098
Q 3938 1781 3938 1306
Q 3938 681 3513 340
Q 3088 0 2303 0
L 628 0
L 628 4666
z
" transform="scale(0.015625)"/>
      <path id="DejaVuSans-33" d="M 2597 2516
Q 3050 2419 3304 2112
Q 3559 1806 3559 1356
Q 3559 666 3084 287
Q 2609 -91 1734 -91
Q 1441 -91 1130 -33
Q 819 25 488 141
L 488 750
Q 750 597 1062 519
Q 1375 441 1716 441
Q 2309 441 2620 675
Q 2931 909 2931 1356
Q 2931 1769 2642 2001
Q 2353 2234 1838 2234
L 1294 2234
L 1294 2753
L 1863 2753
Q 2328 2753 2575 2939
Q 2822 3125 2822 3475
Q 2822 3834 2567 4026
Q 2313 4219 1838 4219
Q 1578 4219 1281 4162
Q 984 4106 628 3988
L 628 4550
Q 988 4650 1302 4700
Q 1616 4750 1894 4750
Q 2613 4750 3031 4423
Q 3450 4097 3450 3541
Q 3450 3153 3228 2886
Q 3006 2619 2597 2516
z
" transform="scale(0.015625)"/>
      <path id="DejaVuSans-50" d="M 1259 4147
L 1259 2394
L 2053 2394
Q 2494 2394 2734 2622
Q 2975 2850 2975 3272
Q 2975 3691 2734 3919
Q 2494 4147 2053 4147
L 1259 4147
z
M 628 4666
L 2053 4666
Q 2838 4666 3239 4311
Q 3641 3956 3641 3272
Q 3641 2581 3239 2228
Q 2838 1875 2053 1875
L 1259 1875
L 1259 0
L 628 0
L 628 4666
z
" transform="scale(0.015625)"/>
      <path id="DejaVuSans-64" d="M 2906 2969
L 2906 4863
L 3481 4863
L 3481 0
L 2906 0
L 2906 525
Q 2725 213 2448 61
Q 2172 -91 1784 -91
Q 1150 -91 751 415
Q 353 922 353 1747
Q 353 2572 751 3078
Q 1150 3584 1784 3584
Q 2172 3584 2448 3432
Q 2725 3281 2906 2969
z
M 947 1747
Q 947 1113 1208 752
Q 1469 391 1925 391
Q 2381 391 2643 752
Q 2906 1113 2906 1747
Q 2906 2381 2643 2742
Q 2381 3103 1925 3103
Q 1469 3103 1208 2742
Q 947 2381 947 1747
z
" transform="scale(0.015625)"/>
      <path id="DejaVuSans-62" d="M 3116 1747
Q 3116 2381 2855 2742
Q 2594 3103 2138 3103
Q 1681 3103 1420 2742
Q 1159 2381 1159 1747
Q 1159 1113 1420 752
Q 1681 391 2138 391
Q 2594 391 2855 752
Q 3116 1113 3116 1747
z
M 1159 2969
Q 1341 3281 1617 3432
Q 1894 3584 2278 3584
Q 2916 3584 3314 3078
Q 3713 2572 3713 1747
Q 3713 922 3314 415
Q 2916 -91 2278 -91
Q 1894 -91 1617 61
Q 1341 213 1159 525
L 1159 0
L 581 0
L 581 4863
L 1159 4863
L 1159 2969
z
" transform="scale(0.015625)"/>
     </defs>
     <use xlink:href="#DejaVuSans-42"/>
     <use xlink:href="#DejaVuSans-33" transform="translate(68.603516 0)"/>
     <use xlink:href="#DejaVuSans-50" transform="translate(132.226562 0)"/>
     <use xlink:href="#DejaVuSans-64" transform="translate(192.529297 0)"/>
     <use xlink:href="#DejaVuSans-62" transform="translate(256.005859 0)"/>
    </g>
   </g>
   <g id="text_6">
    <!-- B3Pred -->
    <g transform="translate(187.616953 125.397131) scale(0.075 -0.075)">
     <defs>
      <path id="DejaVuSans-72" d="M 2631 2963
Q 2534 3019 2420 3045
Q 2306 3072 2169 3072
Q 1681 3072 1420 2755
Q 1159 2438 1159 1844
L 1159 0
L 581 0
L 581 3500
L 1159 3500
L 1159 2956
Q 1341 3275 1631 3429
Q 1922 3584 2338 3584
Q 2397 3584 2469 3576
Q 2541 3569 2628 3553
L 2631 2963
z
" transform="scale(0.015625)"/>
      <path id="DejaVuSans-65" d="M 3597 1894
L 3597 1613
L 953 1613
Q 991 1019 1311 708
Q 1631 397 2203 397
Q 2534 397 2845 478
Q 3156 559 3463 722
L 3463 178
Q 3153 47 2828 -22
Q 2503 -91 2169 -91
Q 1331 -91 842 396
Q 353 884 353 1716
Q 353 2575 817 3079
Q 1281 3584 2069 3584
Q 2775 3584 3186 3129
Q 3597 2675 3597 1894
z
M 3022 2063
Q 3016 2534 2758 2815
Q 2500 3097 2075 3097
Q 1594 3097 1305 2825
Q 1016 2553 972 2059
L 3022 2063
z
" transform="scale(0.015625)"/>
     </defs>
     <use xlink:href="#DejaVuSans-42"/>
     <use xlink:href="#DejaVuSans-33" transform="translate(68.603516 0)"/>
     <use xlink:href="#DejaVuSans-50" transform="translate(132.226562 0)"/>
     <use xlink:href="#DejaVuSans-72" transform="translate(190.779297 0)"/>
     <use xlink:href="#DejaVuSans-65" transform="translate(229.642578 0)"/>
     <use xlink:href="#DejaVuSans-64" transform="translate(291.166016 0)"/>
    </g>
   </g>
   <g id="text_7">
    <!-- Current evidence -->
    <g transform="translate(168.639609 162.961931) scale(0.075 -0.075)">
     <defs>
      <path id="DejaVuSans-43" d="M 4122 4306
L 4122 3641
Q 3803 3938 3442 4084
Q 3081 4231 2675 4231
Q 1875 4231 1450 3742
Q 1025 3253 1025 2328
Q 1025 1406 1450 917
Q 1875 428 2675 428
Q 3081 428 3442 575
Q 3803 722 4122 1019
L 4122 359
Q 3791 134 3420 21
Q 3050 -91 2638 -91
Q 1578 -91 968 557
Q 359 1206 359 2328
Q 359 3453 968 4101
Q 1578 4750 2638 4750
Q 3056 4750 3426 4639
Q 3797 4528 4122 4306
z
" transform="scale(0.015625)"/>
      <path id="DejaVuSans-75" d="M 544 1381
L 544 3500
L 1119 3500
L 1119 1403
Q 1119 906 1312 657
Q 1506 409 1894 409
Q 2359 409 2629 706
Q 2900 1003 2900 1516
L 2900 3500
L 3475 3500
L 3475 0
L 2900 0
L 2900 538
Q 2691 219 2414 64
Q 2138 -91 1772 -91
Q 1169 -91 856 284
Q 544 659 544 1381
z
M 1991 3584
L 1991 3584
z
" transform="scale(0.015625)"/>
      <path id="DejaVuSans-6e" d="M 3513 2113
L 3513 0
L 2938 0
L 2938 2094
Q 2938 2591 2744 2837
Q 2550 3084 2163 3084
Q 1697 3084 1428 2787
Q 1159 2491 1159 1978
L 1159 0
L 581 0
L 581 3500
L 1159 3500
L 1159 2956
Q 1366 3272 1645 3428
Q 1925 3584 2291 3584
Q 2894 3584 3203 3211
Q 3513 2838 3513 2113
z
" transform="scale(0.015625)"/>
      <path id="DejaVuSans-74" d="M 1172 4494
L 1172 3500
L 2356 3500
L 2356 3053
L 1172 3053
L 1172 1153
Q 1172 725 1289 603
Q 1406 481 1766 481
L 2356 481
L 2356 0
L 1766 0
Q 1100 0 847 248
Q 594 497 594 1153
L 594 3053
L 172 3053
L 172 3500
L 594 3500
L 594 4494
L 1172 4494
z
" transform="scale(0.015625)"/>
      <path id="DejaVuSans-20" transform="scale(0.015625)"/>
      <path id="DejaVuSans-76" d="M 191 3500
L 800 3500
L 1894 563
L 2988 3500
L 3597 3500
L 2284 0
L 1503 0
L 191 3500
z
" transform="scale(0.015625)"/>
      <path id="DejaVuSans-69" d="M 603 3500
L 1178 3500
L 1178 0
L 603 0
L 603 3500
z
M 603 4863
L 1178 4863
L 1178 4134
L 603 4134
L 603 4863
z
" transform="scale(0.015625)"/>
      <path id="DejaVuSans-63" d="M 3122 3366
L 3122 2828
Q 2878 2963 2633 3030
Q 2388 3097 2138 3097
Q 1578 3097 1268 2742
Q 959 2388 959 1747
Q 959 1106 1268 751
Q 1578 397 2138 397
Q 2388 397 2633 464
Q 2878 531 3122 666
L 3122 134
Q 2881 22 2623 -34
Q 2366 -91 2075 -91
Q 1284 -91 818 406
Q 353 903 353 1747
Q 353 2603 823 3093
Q 1294 3584 2113 3584
Q 2378 3584 2631 3529
Q 2884 3475 3122 3366
z
" transform="scale(0.015625)"/>
     </defs>
     <use xlink:href="#DejaVuSans-43"/>
     <use xlink:href="#DejaVuSans-75" transform="translate(69.824219 0)"/>
     <use xlink:href="#DejaVuSans-72" transform="translate(133.203125 0)"/>
     <use xlink:href="#DejaVuSans-72" transform="translate(172.566406 0)"/>
     <use xlink:href="#DejaVuSans-65" transform="translate(211.429688 0)"/>
     <use xlink:href="#DejaVuSans-6e" transform="translate(272.953125 0)"/>
     <use xlink:href="#DejaVuSans-74" transform="translate(336.332031 0)"/>
     <use xlink:href="#DejaVuSans-20" transform="translate(375.541016 0)"/>
     <use xlink:href="#DejaVuSans-65" transform="translate(407.328125 0)"/>
     <use xlink:href="#DejaVuSans-76" transform="translate(468.851562 0)"/>
     <use xlink:href="#DejaVuSans-69" transform="translate(528.03125 0)"/>
     <use xlink:href="#DejaVuSans-64" transform="translate(555.814453 0)"/>
     <use xlink:href="#DejaVuSans-65" transform="translate(619.291016 0)"/>
     <use xlink:href="#DejaVuSans-6e" transform="translate(680.814453 0)"/>
     <use xlink:href="#DejaVuSans-63" transform="translate(744.193359 0)"/>
     <use xlink:href="#DejaVuSans-65" transform="translate(799.173828 0)"/>
    </g>
   </g>
   <g id="text_8">
    <!-- BrainPeps -->
    <g transform="translate(396.459056 134.788331) scale(0.075 -0.075)">
     <defs>
      <path id="DejaVuSans-61" d="M 2194 1759
Q 1497 1759 1228 1600
Q 959 1441 959 1056
Q 959 750 1161 570
Q 1363 391 1709 391
Q 2188 391 2477 730
Q 2766 1069 2766 1631
L 2766 1759
L 2194 1759
z
M 3341 1997
L 3341 0
L 2766 0
L 2766 531
Q 2569 213 2275 61
Q 1981 -91 1556 -91
Q 1019 -91 701 211
Q 384 513 384 1019
Q 384 1609 779 1909
Q 1175 2209 1959 2209
L 2766 2209
L 2766 2266
Q 2766 2663 2505 2880
Q 2244 3097 1772 3097
Q 1472 3097 1187 3025
Q 903 2953 641 2809
L 641 3341
Q 956 3463 1253 3523
Q 1550 3584 1831 3584
Q 2591 3584 2966 3190
Q 3341 2797 3341 1997
z
" transform="scale(0.015625)"/>
      <path id="DejaVuSans-70" d="M 1159 525
L 1159 -1331
L 581 -1331
L 581 3500
L 1159 3500
L 1159 2969
Q 1341 3281 1617 3432
Q 1894 3584 2278 3584
Q 2916 3584 3314 3078
Q 3713 2572 3713 1747
Q 3713 922 3314 415
Q 2916 -91 2278 -91
Q 1894 -91 1617 61
Q 1341 213 1159 525
z
M 3116 1747
Q 3116 2381 2855 2742
Q 2594 3103 2138 3103
Q 1681 3103 1420 2742
Q 1159 2381 1159 1747
Q 1159 1113 1420 752
Q 1681 391 2138 391
Q 2594 391 2855 752
Q 3116 1113 3116 1747
z
" transform="scale(0.015625)"/>
      <path id="DejaVuSans-73" d="M 2834 3397
L 2834 2853
Q 2591 2978 2328 3040
Q 2066 3103 1784 3103
Q 1356 3103 1142 2972
Q 928 2841 928 2578
Q 928 2378 1081 2264
Q 1234 2150 1697 2047
L 1894 2003
Q 2506 1872 2764 1633
Q 3022 1394 3022 966
Q 3022 478 2636 193
Q 2250 -91 1575 -91
Q 1294 -91 989 -36
Q 684 19 347 128
L 347 722
Q 666 556 975 473
Q 1284 391 1588 391
Q 1994 391 2212 530
Q 2431 669 2431 922
Q 2431 1156 2273 1281
Q 2116 1406 1581 1522
L 1381 1569
Q 847 1681 609 1914
Q 372 2147 372 2553
Q 372 3047 722 3315
Q 1072 3584 1716 3584
Q 2034 3584 2315 3537
Q 2597 3491 2834 3397
z
" transform="scale(0.015625)"/>
     </defs>
     <use xlink:href="#DejaVuSans-42"/>
     <use xlink:href="#DejaVuSans-72" transform="translate(68.603516 0)"/>
     <use xlink:href="#DejaVuSans-61" transform="translate(109.716797 0)"/>
     <use xlink:href="#DejaVuSans-69" transform="translate(170.996094 0)"/>
     <use xlink:href="#DejaVuSans-6e" transform="translate(198.779297 0)"/>
     <use xlink:href="#DejaVuSans-50" transform="translate(262.158203 0)"/>
     <use xlink:href="#DejaVuSans-65" transform="translate(318.835938 0)"/>
     <use xlink:href="#DejaVuSans-70" transform="translate(380.359375 0)"/>
     <use xlink:href="#DejaVuSans-73" transform="translate(443.835938 0)"/>
    </g>
   </g>
   <g id="text_9">
    <!-- BBPpredict -->
    <g transform="translate(509.268009 134.788331) scale(0.075 -0.075)">
     <use xlink:href="#DejaVuSans-42"/>
     <use xlink:href="#DejaVuSans-42" transform="translate(68.603516 0)"/>
     <use xlink:href="#DejaVuSans-50" transform="translate(137.207031 0)"/>
     <use xlink:href="#DejaVuSans-70" transform="translate(197.509766 0)"/>
     <use xlink:href="#DejaVuSans-72" transform="translate(260.986328 0)"/>
     <use xlink:href="#DejaVuSans-65" transform="translate(299.849609 0)"/>
     <use xlink:href="#DejaVuSans-64" transform="translate(361.373047 0)"/>
     <use xlink:href="#DejaVuSans-69" transform="translate(424.849609 0)"/>
     <use xlink:href="#DejaVuSans-63" transform="translate(452.632812 0)"/>
     <use xlink:href="#DejaVuSans-74" transform="translate(507.613281 0)"/>
    </g>
   </g>
   <g id="text_10">
    <!-- DeepB3P -->
    <g transform="translate(627.389658 134.788331) scale(0.075 -0.075)">
     <defs>
      <path id="DejaVuSans-44" d="M 1259 4147
L 1259 519
L 2022 519
Q 2988 519 3436 956
Q 3884 1394 3884 2338
Q 3884 3275 3436 3711
Q 2988 4147 2022 4147
L 1259 4147
z
M 628 4666
L 1925 4666
Q 3281 4666 3915 4102
Q 4550 3538 4550 2338
Q 4550 1131 3912 565
Q 3275 0 1925 0
L 628 0
L 628 4666
z
" transform="scale(0.015625)"/>
     </defs>
     <use xlink:href="#DejaVuSans-44"/>
     <use xlink:href="#DejaVuSans-65" transform="translate(77.001953 0)"/>
     <use xlink:href="#DejaVuSans-65" transform="translate(138.525391 0)"/>
     <use xlink:href="#DejaVuSans-70" transform="translate(200.048828 0)"/>
     <use xlink:href="#DejaVuSans-42" transform="translate(263.525391 0)"/>
     <use xlink:href="#DejaVuSans-33" transform="translate(332.128906 0)"/>
     <use xlink:href="#DejaVuSans-50" transform="translate(395.751953 0)"/>
    </g>
   </g>
   <g id="text_11">
    <!-- DeepB3Pred -->
    <g transform="translate(506.592033 200.526731) scale(0.075 -0.075)">
     <use xlink:href="#DejaVuSans-44"/>
     <use xlink:href="#DejaVuSans-65" transform="translate(77.001953 0)"/>
     <use xlink:href="#DejaVuSans-65" transform="translate(138.525391 0)"/>
     <use xlink:href="#DejaVuSans-70" transform="translate(200.048828 0)"/>
     <use xlink:href="#DejaVuSans-42" transform="translate(263.525391 0)"/>
     <use xlink:href="#DejaVuSans-33" transform="translate(332.128906 0)"/>
     <use xlink:href="#DejaVuSans-50" transform="translate(395.751953 0)"/>
     <use xlink:href="#DejaVuSans-72" transform="translate(454.304688 0)"/>
     <use xlink:href="#DejaVuSans-65" transform="translate(493.167969 0)"/>
     <use xlink:href="#DejaVuSans-64" transform="translate(554.691406 0)"/>
    </g>
   </g>
   <g id="text_12">
    <!-- PractiCPP -->
    <g transform="translate(106.688133 336.699131) scale(0.075 -0.075)">
     <use xlink:href="#DejaVuSans-50"/>
     <use xlink:href="#DejaVuSans-72" transform="translate(58.552734 0)"/>
     <use xlink:href="#DejaVuSans-61" transform="translate(99.666016 0)"/>
     <use xlink:href="#DejaVuSans-63" transform="translate(160.945312 0)"/>
     <use xlink:href="#DejaVuSans-74" transform="translate(215.925781 0)"/>
     <use xlink:href="#DejaVuSans-69" transform="translate(255.134766 0)"/>
     <use xlink:href="#DejaVuSans-43" transform="translate(282.917969 0)"/>
     <use xlink:href="#DejaVuSans-50" transform="translate(352.742188 0)"/>
     <use xlink:href="#DejaVuSans-50" transform="translate(413.044922 0)"/>
    </g>
   </g>
   <g id="text_13">
    <!-- PerseuCPP -->
    <g transform="translate(219.403336 336.699131) scale(0.075 -0.075)">
     <use xlink:href="#DejaVuSans-50"/>
     <use xlink:href="#DejaVuSans-65" transform="translate(56.677734 0)"/>
     <use xlink:href="#DejaVuSans-72" transform="translate(118.201172 0)"/>
     <use xlink:href="#DejaVuSans-73" transform="translate(159.314453 0)"/>
     <use xlink:href="#DejaVuSans-65" transform="translate(211.414062 0)"/>
     <use xlink:href="#DejaVuSans-75" transform="translate(272.9375 0)"/>
     <use xlink:href="#DejaVuSans-43" transform="translate(336.316406 0)"/>
     <use xlink:href="#DejaVuSans-50" transform="translate(406.140625 0)"/>
     <use xlink:href="#DejaVuSans-50" transform="translate(466.443359 0)"/>
    </g>
   </g>
   <g id="text_14">
    <!-- DBAASP -->
    <g transform="translate(453.256008 346.090331) scale(0.075 -0.075)">
     <defs>
      <path id="DejaVuSans-41" d="M 2188 4044
L 1331 1722
L 3047 1722
L 2188 4044
z
M 1831 4666
L 2547 4666
L 4325 0
L 3669 0
L 3244 1197
L 1141 1197
L 716 0
L 50 0
L 1831 4666
z
" transform="scale(0.015625)"/>
      <path id="DejaVuSans-53" d="M 3425 4513
L 3425 3897
Q 3066 4069 2747 4153
Q 2428 4238 2131 4238
Q 1616 4238 1336 4038
Q 1056 3838 1056 3469
Q 1056 3159 1242 3001
Q 1428 2844 1947 2747
L 2328 2669
Q 3034 2534 3370 2195
Q 3706 1856 3706 1288
Q 3706 609 3251 259
Q 2797 -91 1919 -91
Q 1588 -91 1214 -16
Q 841 59 441 206
L 441 856
Q 825 641 1194 531
Q 1563 422 1919 422
Q 2459 422 2753 634
Q 3047 847 3047 1241
Q 3047 1584 2836 1778
Q 2625 1972 2144 2069
L 1759 2144
Q 1053 2284 737 2584
Q 422 2884 422 3419
Q 422 4038 858 4394
Q 1294 4750 2059 4750
Q 2388 4750 2728 4690
Q 3069 4631 3425 4513
z
" transform="scale(0.015625)"/>
     </defs>
     <use xlink:href="#DejaVuSans-44"/>
     <use xlink:href="#DejaVuSans-42" transform="translate(77.001953 0)"/>
     <use xlink:href="#DejaVuSans-41" transform="translate(145.605469 0)"/>
     <use xlink:href="#DejaVuSans-41" transform="translate(216.763672 0)"/>
     <use xlink:href="#DejaVuSans-53" transform="translate(285.171875 0)"/>
     <use xlink:href="#DejaVuSans-50" transform="translate(348.648438 0)"/>
    </g>
   </g>
   <g id="text_15">
    <!-- APD -->
    <g transform="translate(598.539408 346.090331) scale(0.075 -0.075)">
     <use xlink:href="#DejaVuSans-41"/>
     <use xlink:href="#DejaVuSans-50" transform="translate(68.408203 0)"/>
     <use xlink:href="#DejaVuSans-44" transform="translate(128.710938 0)"/>
    </g>
   </g>
   <g id="text_16">
    <!-- Boundary: metadata-level only. No row-level overlap measured. No independence proven. No public dataset availability claim. -->
    <g style="fill: #9b4a45" transform="translate(47.959313 452.0196) scale(0.1 -0.1)">
     <defs>
      <path id="DejaVuSans-Bold-3a" d="M 716 3500
L 1844 3500
L 1844 2291
L 716 2291
L 716 3500
z
M 716 1209
L 1844 1209
L 1844 0
L 716 0
L 716 1209
z
" transform="scale(0.015625)"/>
      <path id="DejaVuSans-Bold-2e" d="M 653 1209
L 1778 1209
L 1778 0
L 653 0
L 653 1209
z
" transform="scale(0.015625)"/>
      <path id="DejaVuSans-Bold-4e" d="M 588 4666
L 1931 4666
L 3628 1466
L 3628 4666
L 4769 4666
L 4769 0
L 3425 0
L 1728 3200
L 1728 0
L 588 0
L 588 4666
z
" transform="scale(0.015625)"/>
      <path id="DejaVuSans-Bold-77" d="M 225 3500
L 1313 3500
L 1900 1088
L 2491 3500
L 3425 3500
L 4013 1113
L 4603 3500
L 5691 3500
L 4769 0
L 3547 0
L 2956 2406
L 2369 0
L 1147 0
L 225 3500
z
" transform="scale(0.015625)"/>
      <path id="DejaVuSans-Bold-70" d="M 1656 506
L 1656 -1331
L 538 -1331
L 538 3500
L 1656 3500
L 1656 2988
Q 1888 3294 2169 3439
Q 2450 3584 2816 3584
Q 3463 3584 3878 3070
Q 4294 2556 4294 1747
Q 4294 938 3878 423
Q 3463 -91 2816 -91
Q 2450 -91 2169 54
Q 1888 200 1656 506
z
M 2400 2772
Q 2041 2772 1848 2508
Q 1656 2244 1656 1747
Q 1656 1250 1848 986
Q 2041 722 2400 722
Q 2759 722 2948 984
Q 3138 1247 3138 1747
Q 3138 2247 2948 2509
Q 2759 2772 2400 2772
z
" transform="scale(0.015625)"/>
     </defs>
     <use xlink:href="#DejaVuSans-Bold-42"/>
     <use xlink:href="#DejaVuSans-Bold-6f" transform="translate(76.220703 0)"/>
     <use xlink:href="#DejaVuSans-Bold-75" transform="translate(144.921875 0)"/>
     <use xlink:href="#DejaVuSans-Bold-6e" transform="translate(216.113281 0)"/>
     <use xlink:href="#DejaVuSans-Bold-64" transform="translate(287.304688 0)"/>
     <use xlink:href="#DejaVuSans-Bold-61" transform="translate(358.886719 0)"/>
     <use xlink:href="#DejaVuSans-Bold-72" transform="translate(426.367188 0)"/>
     <use xlink:href="#DejaVuSans-Bold-79" transform="translate(475.683594 0)"/>
     <use xlink:href="#DejaVuSans-Bold-3a" transform="translate(540.869141 0)"/>
     <use xlink:href="#DejaVuSans-Bold-20" transform="translate(580.859375 0)"/>
     <use xlink:href="#DejaVuSans-Bold-6d" transform="translate(615.673828 0)"/>
     <use xlink:href="#DejaVuSans-Bold-65" transform="translate(719.873047 0)"/>
     <use xlink:href="#DejaVuSans-Bold-74" transform="translate(787.695312 0)"/>
     <use xlink:href="#DejaVuSans-Bold-61" transform="translate(835.498047 0)"/>
     <use xlink:href="#DejaVuSans-Bold-64" transform="translate(902.978516 0)"/>
     <use xlink:href="#DejaVuSans-Bold-61" transform="translate(974.560547 0)"/>
     <use xlink:href="#DejaVuSans-Bold-74" transform="translate(1042.041016 0)"/>
     <use xlink:href="#DejaVuSans-Bold-61" transform="translate(1089.84375 0)"/>
     <use xlink:href="#DejaVuSans-Bold-2d" transform="translate(1157.324219 0)"/>
     <use xlink:href="#DejaVuSans-Bold-6c" transform="translate(1198.828125 0)"/>
     <use xlink:href="#DejaVuSans-Bold-65" transform="translate(1233.105469 0)"/>
     <use xlink:href="#DejaVuSans-Bold-76" transform="translate(1300.927734 0)"/>
     <use xlink:href="#DejaVuSans-Bold-65" transform="translate(1366.113281 0)"/>
     <use xlink:href="#DejaVuSans-Bold-6c" transform="translate(1433.935547 0)"/>
     <use xlink:href="#DejaVuSans-Bold-20" transform="translate(1468.212891 0)"/>
     <use xlink:href="#DejaVuSans-Bold-6f" transform="translate(1503.027344 0)"/>
     <use xlink:href="#DejaVuSans-Bold-6e" transform="translate(1571.728516 0)"/>
     <use xlink:href="#DejaVuSans-Bold-6c" transform="translate(1642.919922 0)"/>
     <use xlink:href="#DejaVuSans-Bold-79" transform="translate(1677.197266 0)"/>
     <use xlink:href="#DejaVuSans-Bold-2e" transform="translate(1733.257812 0)"/>
     <use xlink:href="#DejaVuSans-Bold-20" transform="translate(1771.246094 0)"/>
     <use xlink:href="#DejaVuSans-Bold-4e" transform="translate(1806.060547 0)"/>
     <use xlink:href="#DejaVuSans-Bold-6f" transform="translate(1889.751953 0)"/>
     <use xlink:href="#DejaVuSans-Bold-20" transform="translate(1958.453125 0)"/>
     <use xlink:href="#DejaVuSans-Bold-72" transform="translate(1993.267578 0)"/>
     <use xlink:href="#DejaVuSans-Bold-6f" transform="translate(2042.583984 0)"/>
     <use xlink:href="#DejaVuSans-Bold-77" transform="translate(2111.285156 0)"/>
     <use xlink:href="#DejaVuSans-Bold-2d" transform="translate(2203.667969 0)"/>
     <use xlink:href="#DejaVuSans-Bold-6c" transform="translate(2245.171875 0)"/>
     <use xlink:href="#DejaVuSans-Bold-65" transform="translate(2279.449219 0)"/>
     <use xlink:href="#DejaVuSans-Bold-76" transform="translate(2347.271484 0)"/>
     <use xlink:href="#DejaVuSans-Bold-65" transform="translate(2412.457031 0)"/>
     <use xlink:href="#DejaVuSans-Bold-6c" transform="translate(2480.279297 0)"/>
     <use xlink:href="#DejaVuSans-Bold-20" transform="translate(2514.556641 0)"/>
     <use xlink:href="#DejaVuSans-Bold-6f" transform="translate(2549.371094 0)"/>
     <use xlink:href="#DejaVuSans-Bold-76" transform="translate(2618.072266 0)"/>
     <use xlink:href="#DejaVuSans-Bold-65" transform="translate(2683.257812 0)"/>
     <use xlink:href="#DejaVuSans-Bold-72" transform="translate(2751.080078 0)"/>
     <use xlink:href="#DejaVuSans-Bold-6c" transform="translate(2800.396484 0)"/>
     <use xlink:href="#DejaVuSans-Bold-61" transform="translate(2834.673828 0)"/>
     <use xlink:href="#DejaVuSans-Bold-70" transform="translate(2902.154297 0)"/>
     <use xlink:href="#DejaVuSans-Bold-20" transform="translate(2973.736328 0)"/>
     <use xlink:href="#DejaVuSans-Bold-6d" transform="translate(3008.550781 0)"/>
     <use xlink:href="#DejaVuSans-Bold-65" transform="translate(3112.75 0)"/>
     <use xlink:href="#DejaVuSans-Bold-61" transform="translate(3180.572266 0)"/>
     <use xlink:href="#DejaVuSans-Bold-73" transform="translate(3248.052734 0)"/>
     <use xlink:href="#DejaVuSans-Bold-75" transform="translate(3307.574219 0)"/>
     <use xlink:href="#DejaVuSans-Bold-72" transform="translate(3378.765625 0)"/>
     <use xlink:href="#DejaVuSans-Bold-65" transform="translate(3428.082031 0)"/>
     <use xlink:href="#DejaVuSans-Bold-64" transform="translate(3495.904297 0)"/>
     <use xlink:href="#DejaVuSans-Bold-2e" transform="translate(3567.486328 0)"/>
     <use xlink:href="#DejaVuSans-Bold-20" transform="translate(3605.474609 0)"/>
     <use xlink:href="#DejaVuSans-Bold-4e" transform="translate(3640.289062 0)"/>
     <use xlink:href="#DejaVuSans-Bold-6f" transform="translate(3723.980469 0)"/>
     <use xlink:href="#DejaVuSans-Bold-20" transform="translate(3792.681641 0)"/>
     <use xlink:href="#DejaVuSans-Bold-69" transform="translate(3827.496094 0)"/>
     <use xlink:href="#DejaVuSans-Bold-6e" transform="translate(3861.773438 0)"/>
     <use xlink:href="#DejaVuSans-Bold-64" transform="translate(3932.964844 0)"/>
     <use xlink:href="#DejaVuSans-Bold-65" transform="translate(4004.546875 0)"/>
     <use xlink:href="#DejaVuSans-Bold-70" transform="translate(4072.369141 0)"/>
     <use xlink:href="#DejaVuSans-Bold-65" transform="translate(4143.951172 0)"/>
     <use xlink:href="#DejaVuSans-Bold-6e" transform="translate(4211.773438 0)"/>
     <use xlink:href="#DejaVuSans-Bold-64" transform="translate(4282.964844 0)"/>
     <use xlink:href="#DejaVuSans-Bold-65" transform="translate(4354.546875 0)"/>
     <use xlink:href="#DejaVuSans-Bold-6e" transform="translate(4422.369141 0)"/>
     <use xlink:href="#DejaVuSans-Bold-63" transform="translate(4493.560547 0)"/>
     <use xlink:href="#DejaVuSans-Bold-65" transform="translate(4552.837891 0)"/>
     <use xlink:href="#DejaVuSans-Bold-20" transform="translate(4620.660156 0)"/>
     <use xlink:href="#DejaVuSans-Bold-70" transform="translate(4655.474609 0)"/>
     <use xlink:href="#DejaVuSans-Bold-72" transform="translate(4727.056641 0)"/>
     <use xlink:href="#DejaVuSans-Bold-6f" transform="translate(4776.373047 0)"/>
     <use xlink:href="#DejaVuSans-Bold-76" transform="translate(4845.074219 0)"/>
     <use xlink:href="#DejaVuSans-Bold-65" transform="translate(4910.259766 0)"/>
     <use xlink:href="#DejaVuSans-Bold-6e" transform="translate(4978.082031 0)"/>
     <use xlink:href="#DejaVuSans-Bold-2e" transform="translate(5049.273438 0)"/>
     <use xlink:href="#DejaVuSans-Bold-20" transform="translate(5087.261719 0)"/>
     <use xlink:href="#DejaVuSans-Bold-4e" transform="translate(5122.076172 0)"/>
     <use xlink:href="#DejaVuSans-Bold-6f" transform="translate(5205.767578 0)"/>
     <use xlink:href="#DejaVuSans-Bold-20" transform="translate(5274.46875 0)"/>
     <use xlink:href="#DejaVuSans-Bold-70" transform="translate(5309.283203 0)"/>
     <use xlink:href="#DejaVuSans-Bold-75" transform="translate(5380.865234 0)"/>
     <use xlink:href="#DejaVuSans-Bold-62" transform="translate(5452.056641 0)"/>
     <use xlink:href="#DejaVuSans-Bold-6c" transform="translate(5523.638672 0)"/>
     <use xlink:href="#DejaVuSans-Bold-69" transform="translate(5557.916016 0)"/>
     <use xlink:href="#DejaVuSans-Bold-63" transform="translate(5592.193359 0)"/>
     <use xlink:href="#DejaVuSans-Bold-20" transform="translate(5651.470703 0)"/>
     <use xlink:href="#DejaVuSans-Bold-64" transform="translate(5686.285156 0)"/>
     <use xlink:href="#DejaVuSans-Bold-61" transform="translate(5757.867188 0)"/>
     <use xlink:href="#DejaVuSans-Bold-74" transform="translate(5825.347656 0)"/>
     <use xlink:href="#DejaVuSans-Bold-61" transform="translate(5873.150391 0)"/>
     <use xlink:href="#DejaVuSans-Bold-73" transform="translate(5940.630859 0)"/>
     <use xlink:href="#DejaVuSans-Bold-65" transform="translate(6000.152344 0)"/>
     <use xlink:href="#DejaVuSans-Bold-74" transform="translate(6067.974609 0)"/>
     <use xlink:href="#DejaVuSans-Bold-20" transform="translate(6115.777344 0)"/>
     <use xlink:href="#DejaVuSans-Bold-61" transform="translate(6150.591797 0)"/>
     <use xlink:href="#DejaVuSans-Bold-76" transform="translate(6218.072266 0)"/>
     <use xlink:href="#DejaVuSans-Bold-61" transform="translate(6283.257812 0)"/>
     <use xlink:href="#DejaVuSans-Bold-69" transform="translate(6350.738281 0)"/>
     <use xlink:href="#DejaVuSans-Bold-6c" transform="translate(6385.015625 0)"/>
     <use xlink:href="#DejaVuSans-Bold-61" transform="translate(6419.292969 0)"/>
     <use xlink:href="#DejaVuSans-Bold-62" transform="translate(6486.773438 0)"/>
     <use xlink:href="#DejaVuSans-Bold-69" transform="translate(6558.355469 0)"/>
     <use xlink:href="#DejaVuSans-Bold-6c" transform="translate(6592.632812 0)"/>
     <use xlink:href="#DejaVuSans-Bold-69" transform="translate(6626.910156 0)"/>
     <use xlink:href="#DejaVuSans-Bold-74" transform="translate(6661.1875 0)"/>
     <use xlink:href="#DejaVuSans-Bold-79" transform="translate(6708.990234 0)"/>
     <use xlink:href="#DejaVuSans-Bold-20" transform="translate(6774.175781 0)"/>
     <use xlink:href="#DejaVuSans-Bold-63" transform="translate(6808.990234 0)"/>
     <use xlink:href="#DejaVuSans-Bold-6c" transform="translate(6868.267578 0)"/>
     <use xlink:href="#DejaVuSans-Bold-61" transform="translate(6902.544922 0)"/>
     <use xlink:href="#DejaVuSans-Bold-69" transform="translate(6970.025391 0)"/>
     <use xlink:href="#DejaVuSans-Bold-6d" transform="translate(7004.302734 0)"/>
     <use xlink:href="#DejaVuSans-Bold-2e" transform="translate(7108.501953 0)"/>
    </g>
   </g>
   <g id="text_17">
    <!-- Figure 6. Metadata-level source lineage and overlap-risk map -->
    <g transform="translate(9.72 18.72) scale(0.12 -0.12)">
     <defs>
      <path id="DejaVuSans-Bold-46" d="M 588 4666
L 3834 4666
L 3834 3756
L 1791 3756
L 1791 2888
L 3713 2888
L 3713 1978
L 1791 1978
L 1791 0
L 588 0
L 588 4666
z
" transform="scale(0.015625)"/>
      <path id="DejaVuSans-Bold-36" d="M 2316 2303
Q 2000 2303 1842 2098
Q 1684 1894 1684 1484
Q 1684 1075 1842 870
Q 2000 666 2316 666
Q 2634 666 2792 870
Q 2950 1075 2950 1484
Q 2950 1894 2792 2098
Q 2634 2303 2316 2303
z
M 3803 4544
L 3803 3681
Q 3506 3822 3243 3889
Q 2981 3956 2731 3956
Q 2194 3956 1894 3657
Q 1594 3359 1544 2772
Q 1750 2925 1990 3001
Q 2231 3078 2516 3078
Q 3231 3078 3670 2659
Q 4109 2241 4109 1563
Q 4109 813 3618 361
Q 3128 -91 2303 -91
Q 1394 -91 895 523
Q 397 1138 397 2266
Q 397 3422 980 4083
Q 1563 4744 2578 4744
Q 2900 4744 3203 4694
Q 3506 4644 3803 4544
z
" transform="scale(0.015625)"/>
      <path id="DejaVuSans-Bold-4d" d="M 588 4666
L 2119 4666
L 3181 2169
L 4250 4666
L 5778 4666
L 5778 0
L 4641 0
L 4641 3413
L 3566 897
L 2803 897
L 1728 3413
L 1728 0
L 588 0
L 588 4666
z
" transform="scale(0.015625)"/>
      <path id="DejaVuSans-Bold-6b" d="M 538 4863
L 1656 4863
L 1656 2216
L 2944 3500
L 4244 3500
L 2534 1894
L 4378 0
L 3022 0
L 1656 1459
L 1656 0
L 538 0
L 538 4863
z
" transform="scale(0.015625)"/>
     </defs>
     <use xlink:href="#DejaVuSans-Bold-46"/>
     <use xlink:href="#DejaVuSans-Bold-69" transform="translate(68.310547 0)"/>
     <use xlink:href="#DejaVuSans-Bold-67" transform="translate(102.587891 0)"/>
     <use xlink:href="#DejaVuSans-Bold-75" transform="translate(174.169922 0)"/>
     <use xlink:href="#DejaVuSans-Bold-72" transform="translate(245.361328 0)"/>
     <use xlink:href="#DejaVuSans-Bold-65" transform="translate(294.677734 0)"/>
     <use xlink:href="#DejaVuSans-Bold-20" transform="translate(362.5 0)"/>
     <use xlink:href="#DejaVuSans-Bold-36" transform="translate(397.314453 0)"/>
     <use xlink:href="#DejaVuSans-Bold-2e" transform="translate(466.894531 0)"/>
     <use xlink:href="#DejaVuSans-Bold-20" transform="translate(504.882812 0)"/>
     <use xlink:href="#DejaVuSans-Bold-4d" transform="translate(539.697266 0)"/>
     <use xlink:href="#DejaVuSans-Bold-65" transform="translate(639.208984 0)"/>
     <use xlink:href="#DejaVuSans-Bold-74" transform="translate(707.03125 0)"/>
     <use xlink:href="#DejaVuSans-Bold-61" transform="translate(754.833984 0)"/>
     <use xlink:href="#DejaVuSans-Bold-64" transform="translate(822.314453 0)"/>
     <use xlink:href="#DejaVuSans-Bold-61" transform="translate(893.896484 0)"/>
     <use xlink:href="#DejaVuSans-Bold-74" transform="translate(961.376953 0)"/>
     <use xlink:href="#DejaVuSans-Bold-61" transform="translate(1009.179688 0)"/>
     <use xlink:href="#DejaVuSans-Bold-2d" transform="translate(1076.660156 0)"/>
     <use xlink:href="#DejaVuSans-Bold-6c" transform="translate(1118.164062 0)"/>
     <use xlink:href="#DejaVuSans-Bold-65" transform="translate(1152.441406 0)"/>
     <use xlink:href="#DejaVuSans-Bold-76" transform="translate(1220.263672 0)"/>
     <use xlink:href="#DejaVuSans-Bold-65" transform="translate(1285.449219 0)"/>
     <use xlink:href="#DejaVuSans-Bold-6c" transform="translate(1353.271484 0)"/>
     <use xlink:href="#DejaVuSans-Bold-20" transform="translate(1387.548828 0)"/>
     <use xlink:href="#DejaVuSans-Bold-73" transform="translate(1422.363281 0)"/>
     <use xlink:href="#DejaVuSans-Bold-6f" transform="translate(1481.884766 0)"/>
     <use xlink:href="#DejaVuSans-Bold-75" transform="translate(1550.585938 0)"/>
     <use xlink:href="#DejaVuSans-Bold-72" transform="translate(1621.777344 0)"/>
     <use xlink:href="#DejaVuSans-Bold-63" transform="translate(1671.09375 0)"/>
     <use xlink:href="#DejaVuSans-Bold-65" transform="translate(1730.371094 0)"/>
     <use xlink:href="#DejaVuSans-Bold-20" transform="translate(1798.193359 0)"/>
     <use xlink:href="#DejaVuSans-Bold-6c" transform="translate(1833.007812 0)"/>
     <use xlink:href="#DejaVuSans-Bold-69" transform="translate(1867.285156 0)"/>
     <use xlink:href="#DejaVuSans-Bold-6e" transform="translate(1901.5625 0)"/>
     <use xlink:href="#DejaVuSans-Bold-65" transform="translate(1972.753906 0)"/>
     <use xlink:href="#DejaVuSans-Bold-61" transform="translate(2040.576172 0)"/>
     <use xlink:href="#DejaVuSans-Bold-67" transform="translate(2108.056641 0)"/>
     <use xlink:href="#DejaVuSans-Bold-65" transform="translate(2179.638672 0)"/>
     <use xlink:href="#DejaVuSans-Bold-20" transform="translate(2247.460938 0)"/>
     <use xlink:href="#DejaVuSans-Bold-61" transform="translate(2282.275391 0)"/>
     <use xlink:href="#DejaVuSans-Bold-6e" transform="translate(2349.755859 0)"/>
     <use xlink:href="#DejaVuSans-Bold-64" transform="translate(2420.947266 0)"/>
     <use xlink:href="#DejaVuSans-Bold-20" transform="translate(2492.529297 0)"/>
     <use xlink:href="#DejaVuSans-Bold-6f" transform="translate(2527.34375 0)"/>
     <use xlink:href="#DejaVuSans-Bold-76" transform="translate(2596.044922 0)"/>
     <use xlink:href="#DejaVuSans-Bold-65" transform="translate(2661.230469 0)"/>
     <use xlink:href="#DejaVuSans-Bold-72" transform="translate(2729.052734 0)"/>
     <use xlink:href="#DejaVuSans-Bold-6c" transform="translate(2778.369141 0)"/>
     <use xlink:href="#DejaVuSans-Bold-61" transform="translate(2812.646484 0)"/>
     <use xlink:href="#DejaVuSans-Bold-70" transform="translate(2880.126953 0)"/>
     <use xlink:href="#DejaVuSans-Bold-2d" transform="translate(2951.708984 0)"/>
     <use xlink:href="#DejaVuSans-Bold-72" transform="translate(2993.212891 0)"/>
     <use xlink:href="#DejaVuSans-Bold-69" transform="translate(3042.529297 0)"/>
     <use xlink:href="#DejaVuSans-Bold-73" transform="translate(3076.806641 0)"/>
     <use xlink:href="#DejaVuSans-Bold-6b" transform="translate(3136.328125 0)"/>
     <use xlink:href="#DejaVuSans-Bold-20" transform="translate(3202.832031 0)"/>
     <use xlink:href="#DejaVuSans-Bold-6d" transform="translate(3237.646484 0)"/>
     <use xlink:href="#DejaVuSans-Bold-61" transform="translate(3341.845703 0)"/>
     <use xlink:href="#DejaVuSans-Bold-70" transform="translate(3409.326172 0)"/>
    </g>
   </g>
  </g>
 </g>
 <defs>
  <clipPath id="p97d3639d48">
   <rect x="9.72" y="24.72" width="764.78625" height="469.56"/>
  </clipPath>
 </defs>
</svg>
